<?xml version="1.0" encoding="utf-8"?>
<!-- Generator: Adobe Illustrator 22.1.0, SVG Export Plug-In . SVG Version: 6.00 Build 0)  -->
<svg version="1.1" id="layer_1" xmlns="http://www.w3.org/2000/svg" xmlns:xlink="http://www.w3.org/1999/xlink" x="0px" y="0px"
	 viewBox="0 0 16 16" style="enable-background:new 0 0 16 16;" xml:space="preserve">
<style type="text/css">
	.st0{opacity:0;}
	.st1{fill:#FFFFFF;}
	.st2{fill:#E51400;}
	.st3{fill:#00539C;}
</style>
<g id="outline_1_" class="st0">
	<path class="st1" d="M0,0h16v16H0V0z"/>
</g>
<g id="icon_x5F_bg_1_">
	<path class="st2" d="M14.8,9.3c0,1.4-1.5,2.8-1.5,2.8C11.8,13.5,13,15,13,15C15.9,13.6,14.8,9.3,14.8,9.3z"/>
</g>
<path class="st3" d="M4.8,1C3.6,1,2.6,1.5,2,2.4V1H1v2.5v1h0.2H2h0.2h2.2v-1h-2C2.8,2.6,3.7,2,4.8,2c1.4,0,2.5,1.1,2.5,2.5
	S6.1,7,4.8,7C4,7,3.3,6.6,2.8,6H1.6c0.6,1.2,1.8,2,3.2,2c1.9,0,3.5-1.6,3.5-3.5S6.7,1,4.8,1z"/>
<path class="st2" d="M13,9c0,0,0.4-2.6-2.6-4c0,0,3,2.8,0,5.7c0-0.9-0.5-3.2-1.6-4.2C8.6,6.8,8.5,7,8.3,7.3c0,1.3-0.7,2.8-0.9,3.4
	c-0.4,1-0.6,1.9-0.2,2.8C7.4,14,8.1,15,8.8,15h1c-1.1,0-1.9-2.1-1-3c-0.3,0.3,0.6,1.3,0.8,1.5c0.4,0.4,1.7,1.5,2.3,1.5h1
	c0,0-2.6-1.5-1.1-2.9C11.8,12.1,13,10.4,13,9z"/>
</svg>
